<svg xmlns="http://www.w3.org/2000/svg" width="48" height="48" viewBox="0 0 48 48">
  <defs>
    <linearGradient id="bgGrad48" x1="0%" y1="0%" x2="100%" y2="100%">
      <stop offset="0%" style="stop-color:#6366f1"/>
      <stop offset="100%" style="stop-color:#4f46e5"/>
    </linearGradient>
    <linearGradient id="starGrad48" x1="0%" y1="0%" x2="100%" y2="100%">
      <stop offset="0%" style="stop-color:#fbbf24"/>
      <stop offset="100%" style="stop-color:#f59e0b"/>
    </linearGradient>
  </defs>
  
  <rect width="48" height="48" rx="10" fill="url(#bgGrad48)"/>
  
  <path d="M12 8h24a3 3 0 0 1 3 3v28l-15-9-15 9V11a3 3 0 0 1 3-3z" fill="white" opacity="0.95"/>
  
  <g transform="translate(24, 19)">
    <path d="M0-8 L2-2.5 L7.5-2.5 L3 1.5 L5 7 L0 4 L-5 7 L-3 1.5 L-7.5-2.5 L-2-2.5 Z" fill="url(#starGrad48)"/>
  </g>
  
  <circle cx="33" cy="13" r="2" fill="#fbbf24" opacity="0.9"/>
  <circle cx="15" cy="15" r="1.5" fill="#fbbf24" opacity="0.7"/>
</svg>