<svg xmlns="http://www.w3.org/2000/svg" width="128" height="128" viewBox="0 0 128 128">
  <defs>
    <linearGradient id="bgGrad" x1="0%" y1="0%" x2="100%" y2="100%">
      <stop offset="0%" style="stop-color:#6366f1"/>
      <stop offset="100%" style="stop-color:#4f46e5"/>
    </linearGradient>
    <linearGradient id="starGrad" x1="0%" y1="0%" x2="100%" y2="100%">
      <stop offset="0%" style="stop-color:#fbbf24"/>
      <stop offset="100%" style="stop-color:#f59e0b"/>
    </linearGradient>
  </defs>
  
  <rect width="128" height="128" rx="28" fill="url(#bgGrad)"/>
  
  <path d="M32 20h64a8 8 0 0 1 8 8v76l-40-24-40 24V28a8 8 0 0 1 8-8z" fill="white" opacity="0.95"/>
  
  <g transform="translate(64, 50)">
    <path d="M0-22 L5-7 L20-7 L8 4 L13 19 L0 10 L-13 19 L-8 4 L-20-7 L-5-7 Z" fill="url(#starGrad)"/>
  </g>
  
  <circle cx="88" cy="36" r="5" fill="#fbbf24" opacity="0.9"/>
  <circle cx="40" cy="42" r="3.5" fill="#fbbf24" opacity="0.7"/>
  <circle cx="82" cy="72" r="3" fill="#fbbf24" opacity="0.8"/>
</svg>